<svg width="29" height="32" viewBox="0 0 29 32" fill="none" xmlns="http://www.w3.org/2000/svg">
<path d="M26.1243 17.7657C26.1243 24.5225 20.7239 30 14.0621 30C7.40041 30 2 24.5225 2 17.7657C2 11.0089 7.40041 5.53139 14.0621 5.53139C20.7239 5.53139 26.1243 11.0089 26.1243 17.7657Z" fill="#F6543E"/>
<path d="M25.4062 8.61955C24.6437 7.57535 23.6734 6.71409 22.5594 6.09258C21.4453 5.47108 20.2128 5.10347 18.9431 5.01399C18.8519 5.00153 18.7587 5.01509 18.6736 5.05321C18.6055 5.08075 18.5305 5.08272 18.462 5.05876C18.3934 5.0348 18.3356 4.98645 18.2987 4.9222C18.2773 4.86867 18.2452 4.82064 18.2043 4.78127C18.1635 4.7419 18.1149 4.71209 18.0618 4.69381C16.0565 3.29712 13.5848 2.79101 11.1896 3.28666C8.79006 3.90375 6.69708 5.74411 4.99896 8.75366C4.94171 8.85773 4.91626 8.97691 4.92602 9.09525C4.93579 9.21358 4.9803 9.32541 5.05359 9.41573C5.13 9.50614 5.23354 9.56736 5.3481 9.58984C5.46266 9.61233 5.5818 9.59483 5.68697 9.54006C7.40742 8.83743 9.23434 8.47201 11.0735 8.46266C10.5649 9.19687 10.2281 10.0419 10.0905 10.9294C9.95281 11.817 10.0181 12.7223 10.2811 13.5721C10.3071 13.659 10.3521 13.7382 10.4127 13.8036C10.4733 13.8689 10.5479 13.9187 10.6307 13.949L10.6931 13.9709C10.7892 13.9919 10.8894 13.9852 10.9829 13.9516C11.0764 13.918 11.1597 13.8588 11.2238 13.7803C12.579 12.1916 14.8499 9.96455 15.902 9.71357C16.8094 10.316 17.5523 11.1473 18.0627 12.1312C18.5731 13.115 18.8345 14.22 18.8231 15.3445C18.8112 15.4798 18.8451 15.6144 18.9191 15.7251C18.993 15.8359 19.1024 15.9158 19.2283 15.9512C19.3542 15.9866 19.4888 15.9752 19.6089 15.919C19.729 15.8628 19.8271 15.7654 19.8864 15.6434C20.7603 14.027 21.0629 12.1533 20.7414 10.3496C22.9967 11.8324 24.7513 13.9986 25.772 16.5601C25.8122 16.6755 25.8899 16.7724 25.9918 16.8345C26.0937 16.8966 26.2137 16.9202 26.3317 16.9013C26.4496 16.889 26.5613 16.8378 26.6502 16.7553C26.739 16.6728 26.8004 16.5633 26.8252 16.443C27.3016 13.7274 26.7963 10.9417 25.4062 8.61955Z" fill="#00652A"/>
<path d="M18.9089 2.02972C18.7708 1.98146 18.619 1.9923 18.4868 2.05986C18.3547 2.12741 18.253 2.24615 18.2041 2.38995L17.3052 5.03586C17.2783 5.11469 17.2686 5.19845 17.2768 5.28106C17.285 5.36366 17.3109 5.44304 17.3526 5.51343C17.5228 5.80442 17.7851 6.02457 18.0958 6.13716L19.4295 2.21168L18.9089 2.02972Z" fill="#5B4036"/>
<path d="M19.95 2.39364L19.4295 2.21168L18.0958 6.13716C18.4042 6.24348 18.7414 6.22744 19.0429 6.09213C19.1198 6.06692 19.1907 6.02436 19.2503 5.96755C19.3099 5.91074 19.3567 5.8411 19.3874 5.7637L20.2864 3.11779C20.3352 2.97399 20.3272 2.81691 20.2642 2.68111C20.2011 2.5453 20.0881 2.4419 19.95 2.39364Z" fill="#795548"/>
<path d="M3.92941 9.17748C3.93496 9.24473 3.94475 9.3115 3.95871 9.37735C2.10892 11.6625 1 14.5851 1 17.7657C1 25.0614 6.83481 31 14.0621 31C21.2895 31 27.1243 25.0614 27.1243 17.7657C27.1243 17.7271 27.1241 17.6886 27.1238 17.6501C27.197 17.6021 27.2663 17.5479 27.3307 17.488C27.574 17.262 27.7384 16.9661 27.8046 16.6449L27.8076 16.6304L27.8101 16.6158C28.3272 13.6685 27.7802 10.6384 26.2642 8.10591L26.2407 8.06671L26.2138 8.02982C25.3674 6.87072 24.2884 5.91206 23.0466 5.21929C22.3736 4.84385 21.6616 4.55142 20.9251 4.34639L21.2332 3.43948C21.3635 3.05597 21.3443 2.6326 21.1711 2.25981C20.9972 1.88556 20.6798 1.58943 20.28 1.44966C20.28 1.44965 20.28 1.44964 20.2799 1.44964L19.7595 1.2677L19.7595 1.26768L19.2389 1.08572C18.8385 0.945774 18.4032 0.979573 18.0317 1.16942C17.662 1.35839 17.3876 1.68448 17.2573 2.06826L16.9628 2.93497C15.0996 2.11467 13.0177 1.88717 10.987 2.30741L10.9637 2.31224L10.9406 2.31817C8.18913 3.02575 5.90725 5.10897 4.12804 8.26225L4.12799 8.26222L4.12282 8.27162C3.97087 8.54779 3.90348 8.86323 3.92941 9.17748Z" stroke="white" stroke-width="2"/>
</svg>
