<svg width="36" height="36" viewBox="0 0 36 36" fill="none" xmlns="http://www.w3.org/2000/svg">
<path d="M28.8961 10.5179C28.1109 9.4845 27.1155 8.62936 25.9756 8.00888C24.8356 7.38839 23.5771 7.01666 22.283 6.91822C22.19 6.90522 22.0951 6.91779 22.0087 6.95458C21.9395 6.98111 21.8633 6.98243 21.7932 6.9583C21.7232 6.93417 21.6639 6.88613 21.6258 6.82263C21.6036 6.76981 21.5704 6.7223 21.5285 6.68324C21.4866 6.64418 21.4369 6.61446 21.3826 6.59604C19.3285 5.20572 16.8065 4.68759 14.3706 5.15545C11.9312 5.74273 9.81399 7.53578 8.10852 10.4822C8.05104 10.584 8.02608 10.7011 8.03698 10.8175C8.04789 10.934 8.09414 11.0444 8.16953 11.1338C8.24809 11.2234 8.35407 11.2845 8.47095 11.3075C8.58783 11.3306 8.70906 11.3143 8.81575 11.2613C10.5627 10.5843 12.4208 10.2399 14.2943 10.2458C13.782 10.9638 13.4458 11.7922 13.3128 12.6642C13.1798 13.5361 13.2536 14.4271 13.5284 15.2652C13.5556 15.3508 13.6021 15.4291 13.6644 15.4939C13.7266 15.5587 13.803 15.6083 13.8876 15.6388L13.9514 15.6608C14.0494 15.6822 14.1514 15.6765 14.2464 15.6442C14.3414 15.6119 14.4258 15.5544 14.4904 15.4777C15.8581 13.9261 18.1534 11.7542 19.2231 11.5159C20.1523 12.116 20.9159 12.9398 21.4437 13.9117C21.9716 14.8837 22.2469 15.9727 22.2444 17.0787C22.2333 17.2117 22.269 17.3444 22.3453 17.4539C22.4215 17.5635 22.5335 17.643 22.6621 17.6788C22.7906 17.7147 22.9276 17.7046 23.0495 17.6503C23.1714 17.596 23.2706 17.501 23.33 17.3814C24.2071 15.7987 24.5002 13.9582 24.1581 12.1813C26.4675 13.6584 28.2725 15.8036 29.333 18.3315C29.3749 18.4454 29.4548 18.5413 29.5591 18.6033C29.6634 18.6652 29.7859 18.6894 29.9059 18.6718C30.026 18.6606 30.1393 18.6112 30.2292 18.5307C30.319 18.4503 30.3806 18.3431 30.4049 18.225C30.8683 15.5578 30.331 12.8134 28.8961 10.5179Z" fill="#00652A"/>
<path d="M29.5161 18.5255C29.4339 18.4807 29.3703 18.4082 29.3367 18.3209C28.2786 15.768 26.4627 13.6013 24.1339 12.1134C24.4761 13.8903 24.183 15.7309 23.3058 17.3136C23.2464 17.4331 23.1473 17.5281 23.0254 17.5824C22.9034 17.6367 22.7664 17.6468 22.6379 17.6109C22.5093 17.5751 22.3973 17.4956 22.3211 17.386C22.2448 17.2765 22.2092 17.1438 22.2202 17.0109C22.2055 15.9165 21.919 14.843 21.3865 13.8869C20.854 12.9307 20.0922 12.1219 19.1696 11.5331C18.0999 11.7714 15.8046 13.9433 14.4369 15.4949C14.3723 15.5716 14.2879 15.6291 14.1929 15.6614C14.0979 15.6937 13.9959 15.6994 13.8979 15.678L13.8341 15.656C13.7495 15.6255 13.6732 15.5759 13.6109 15.5111C13.5486 15.4463 13.5021 15.368 13.4749 15.2824C13.1989 14.4425 13.1247 13.5493 13.2584 12.6754C13.3921 11.8014 13.7299 10.9713 14.2444 10.2524C12.3881 10.2505 10.5475 10.5926 8.8158 11.2613C8.75256 11.2813 8.6856 11.2867 8.61996 11.2771C7.10947 12.7521 6.00147 14.5891 5.40137 16.6133C4.80126 18.6375 4.729 20.7815 5.19146 22.8415C5.65392 24.9015 6.63572 26.8089 8.04347 28.3823C9.45123 29.9557 11.2381 31.1428 13.2342 31.8306C15.2302 32.5184 17.3691 32.6842 19.4473 32.312C21.5255 31.9399 23.4739 31.0422 25.1072 29.7044C26.7405 28.3667 28.0044 26.6333 28.7787 24.6691C29.553 22.705 29.8119 20.5754 29.5307 18.4829L29.5161 18.5255Z" fill="#F6543E"/>
<path d="M22.2242 3.98246C22.0831 3.93385 21.9286 3.94327 21.7945 4.00863C21.6604 4.074 21.5577 4.18996 21.5091 4.331L20.6148 6.92624C20.5881 7.00356 20.5789 7.08587 20.5879 7.16719C20.5969 7.24851 20.6239 7.3268 20.667 7.39639C20.8427 7.68402 21.1117 7.90272 21.4292 8.01602L22.756 4.16572L22.2242 3.98246Z" fill="#5B4036"/>
<path d="M23.2877 4.34897L22.7559 4.16571L21.429 8.01601C21.7441 8.12312 22.0875 8.11012 22.3936 7.97951C22.4718 7.95534 22.5436 7.91406 22.6038 7.85867C22.6641 7.80328 22.7113 7.73516 22.7419 7.65927L23.6362 5.06404C23.6848 4.923 23.6754 4.76842 23.61 4.63432C23.5447 4.50022 23.4287 4.39758 23.2877 4.34897Z" fill="#795548"/>
</svg>
